<svg width="512" height="512" viewBox="0 0 512 512" fill="none" xmlns="http://www.w3.org/2000/svg">
  <!-- Background gradient -->
  <defs>
    <linearGradient id="grad1" x1="0%" y1="0%" x2="100%" y2="100%">
      <stop offset="0%" style="stop-color:#6366f1;stop-opacity:1" />
      <stop offset="100%" style="stop-color:#8b5cf6;stop-opacity:1" />
    </linearGradient>
  </defs>

  <!-- Background circle -->
  <rect width="512" height="512" rx="120" fill="url(#grad1)"/>

  <!-- Document icon -->
  <path d="M160 120C160 106.745 170.745 96 184 96H280L368 184V392C368 405.255 357.255 416 344 416H184C170.745 416 160 405.255 160 392V120Z" fill="white"/>
  <path d="M280 96L368 184H304C290.745 184 280 173.255 280 160V96Z" fill="#e0e7ff"/>

  <!-- Checkmark -->
  <path d="M220 260L250 290L310 230" stroke="#6366f1" stroke-width="20" stroke-linecap="round" stroke-linejoin="round" fill="none"/>

  <!-- AI sparkle -->
  <circle cx="380" cy="140" r="30" fill="#fbbf24"/>
  <path d="M380 120 L375 130 L365 135 L375 140 L380 150 L385 140 L395 135 L385 130 Z" fill="white"/>
</svg>
